<?xml version="1.0" encoding="UTF-8" standalone="no"?>
<svg
   xmlns:dc="http://purl.org/dc/elements/1.1/"
   xmlns:cc="http://creativecommons.org/ns#"
   xmlns:rdf="http://www.w3.org/1999/02/22-rdf-syntax-ns#"
   xmlns:svg="http://www.w3.org/2000/svg"
   xmlns="http://www.w3.org/2000/svg"
   xmlns:sodipodi="http://sodipodi.sourceforge.net/DTD/sodipodi-0.dtd"
   xmlns:inkscape="http://www.inkscape.org/namespaces/inkscape"
   width="193.36719pt"
   height="104.52734pt"
   viewBox="0 0 193.36719 104.52734"
   version="1.2"
   id="svg3785"
   sodipodi:docname="logo-bloc2.svg"
   inkscape:version="0.92.2 5c3e80d, 2017-08-06">
  <metadata
     id="metadata3791">
    <rdf:RDF>
      <cc:Work
         rdf:about="">
        <dc:format>image/svg+xml</dc:format>
        <dc:type
           rdf:resource="http://purl.org/dc/dcmitype/StillImage" />
        <dc:title></dc:title>
      </cc:Work>
    </rdf:RDF>
  </metadata>
  <defs
     id="defs3789" />
  <sodipodi:namedview
     pagecolor="#ffffff"
     bordercolor="#666666"
     borderopacity="1"
     objecttolerance="10"
     gridtolerance="10"
     guidetolerance="10"
     inkscape:pageopacity="0"
     inkscape:pageshadow="2"
     inkscape:window-width="3200"
     inkscape:window-height="1746"
     id="namedview3787"
     showgrid="false"
     inkscape:zoom="7.2605896"
     inkscape:cx="81.712893"
     inkscape:cy="69.707225"
     inkscape:window-x="0"
     inkscape:window-y="54"
     inkscape:window-maximized="1"
     inkscape:current-layer="svg3785"
     fit-margin-top="0"
     fit-margin-left="0"
     fit-margin-right="0"
     fit-margin-bottom="0" />
  <g
     id="surface10302"
     transform="translate(-16.601562,-14.230469)">
    <path
       style="fill:#45423f;fill-opacity:1;fill-rule:nonzero;stroke:none"
       d="m 99.546875,60.722656 c -2.8125,0.242188 -4.5,1.605469 -4.5,4.503906 0,2.8125 1.042969,4.742188 3.9375,4.742188 3.460935,0 7.882815,-1.285156 7.882815,-1.285156 v -8.605469 z m 18.093755,6.109375 c 0.16406,2.414063 0.48437,3.378907 2.65625,3.78125 l -0.32422,8.121094 c -5.38672,0 -8.1211,-0.5625 -11.4961,-2.8125 0,0 -5.79297,2.8125 -11.824216,2.8125 -8.441406,0 -12.460938,-4.664063 -12.460938,-13.1875 0,-9.085937 5.226563,-11.660156 14.070313,-12.304687 l 8.605471,-0.640626 v -2.496093 c 0,-3.457031 -1.52735,-4.339844 -4.7461,-4.339844 -5.304684,0 -15.117184,0.644531 -15.117184,0.644531 l -0.320312,-7.480468 c 0,0 8.601562,-2.332032 16.324216,-2.332032 10.45313,0 14.63282,4.101563 14.63282,13.507813 z m 0,0"
       id="path3718"
       inkscape:connector-curvature="0" />
    <path
       style="fill:#45423f;fill-opacity:1;fill-rule:nonzero;stroke:none"
       d="m 140.3125,46.730469 v 16.484375 c 0,4.019531 0,5.871094 3.375,5.871094 2.25391,0 6.11328,-0.164063 6.11328,-0.164063 l 0.48047,8.605469 c 0,0 -5.38672,1.207031 -8.19922,1.207031 -9.73047,0 -12.54687,-3.699219 -12.54687,-15.277344 V 46.730469 h -4.74219 V 37.5625 h 4.74219 V 26.386719 H 140.3125 V 37.5625 h 9.89062 v 9.167969 z m 0,0"
       id="path3720"
       inkscape:connector-curvature="0" />
    <path
       style="fill:#45423f;fill-opacity:1;fill-rule:nonzero;stroke:none"
       d="m 169.89844,60.722656 c -2.8125,0.242188 -4.5,1.605469 -4.5,4.503906 0,2.8125 1.04297,4.742188 3.9375,4.742188 3.45703,0 7.8789,-1.285156 7.8789,-1.285156 v -8.605469 z m 18.09375,6.109375 c 0.16015,2.414063 0.48047,3.378907 2.65234,3.78125 l -0.32031,8.121094 c -5.38672,0 -8.1211,-0.5625 -11.5,-2.8125 0,0 -5.78906,2.8125 -11.82031,2.8125 -8.44141,0 -12.46485,-4.664063 -12.46485,-13.1875 0,-9.085937 5.22656,-11.660156 14.07422,-12.304687 l 8.60156,-0.640626 v -2.496093 c 0,-3.457031 -1.52734,-4.339844 -4.74218,-4.339844 -5.3086,0 -15.11719,0.644531 -15.11719,0.644531 l -0.32422,-7.480468 c 0,0 8.60547,-2.332032 16.32422,-2.332032 10.45703,0 14.63672,4.101563 14.63672,13.507813 z m 0,0"
       id="path3722"
       inkscape:connector-curvature="0" />
    <path
       style="fill:#b82821;fill-opacity:1;fill-rule:nonzero;stroke:none"
       d="M 197.79687,64.421875 H 209.375 v 13.347656 h -11.57813 z m 0,0"
       id="path3724"
       inkscape:connector-curvature="0" />
    <path
       style="fill:#7f7d7a;fill-opacity:1;fill-rule:nonzero;stroke:none"
       d="m 88.027344,96.960938 v 10.699222 c 0.179687,0.0352 1.921875,0.28906 3.191406,0.28906 3.371094,0 4.351562,-1.77734 4.351562,-6.23828 0,-4.24219 -1.339843,-5.765628 -3.589843,-5.765628 -1.921875,0 -3.953125,1.015626 -3.953125,1.015626 m -3.953125,-4.132813 h 3.917969 v 1.121094 c 0,0 2.5,-1.523438 4.675781,-1.523438 4.714843,0 6.929687,2.683594 6.929687,9.285159 0,7.47265 -2.539062,9.64844 -8.125,9.64844 -1.488281,0 -3.226562,-0.28907 -3.445312,-0.32422 v 7.72265 h -3.953125 z m 0,0"
       id="path3726"
       inkscape:connector-curvature="0" />
    <path
       style="fill:#7f7d7a;fill-opacity:1;fill-rule:nonzero;stroke:none"
       d="m 118.44922,92.828125 v 18.132815 h -3.91406 v -1.125 c 0,0 -2.64844,1.52344 -4.89844,1.52344 -5.18359,0 -6.27344,-2.6836 -6.27344,-9.06641 v -9.464845 h 3.95313 v 9.500005 c 0,4.02734 0.2539,5.51171 3.08203,5.51171 2.17578,0 4.13672,-0.9414 4.13672,-0.9414 V 92.828125 Z m 0,0"
       id="path3728"
       inkscape:connector-curvature="0" />
    <path
       style="fill:#7f7d7a;fill-opacity:1;fill-rule:nonzero;stroke:none"
       d="m 134.69531,101.64063 c 0,-4.101568 -1.05078,-5.695318 -3.48047,-5.695318 -1.92187,0 -4.0625,0.726563 -4.0625,0.726563 v 11.027345 c 0,0 1.99219,0.14062 2.71875,0.14062 4.02735,0 4.82422,-1.77734 4.82422,-6.19921 m 4.02735,0 c 0,7.5039 -2.35938,9.71875 -8.85157,9.71875 -1.92187,0 -6.63671,-0.4336 -6.63671,-0.4336 V 85.28125 h 3.91796 v 8.234375 c 0,0 2.50391,-1.089844 4.53516,-1.089844 4.92969,0 7.03516,2.433594 7.03516,9.214849"
       id="path3730"
       inkscape:connector-curvature="0" />
    <path
       style="fill:#7f7d7a;fill-opacity:1;fill-rule:nonzero;stroke:none"
       d="m 142.88672,85.28125 h 3.95312 v 25.67969 h -3.95312 z m 0,0"
       id="path3732"
       inkscape:connector-curvature="0" />
    <path
       style="fill:#7f7d7a;fill-opacity:1;fill-rule:nonzero;stroke:none"
       d="m 151.84375,92.828125 h 3.95312 v 18.132815 h -3.95312 z m 0,-7.253906 h 3.95312 v 4.167969 h -3.95312 z m 0,0"
       id="path3734"
       inkscape:connector-curvature="0" />
    <path
       style="fill:#7f7d7a;fill-opacity:1;fill-rule:nonzero;stroke:none"
       d="m 172.80469,93.117188 -0.14453,3.117187 c 0,0 -2.86719,-0.289063 -4.2461,-0.289063 -3.76953,0 -4.64062,1.523438 -4.64062,5.695318 0,4.64062 0.76172,6.19921 4.67968,6.19921 1.375,0 4.24219,-0.28906 4.24219,-0.28906 l 0.10938,3.15625 c 0,0 -3.66407,0.65235 -5.51563,0.65235 -5.58203,0 -7.50781,-2.75782 -7.50781,-9.71875 0,-6.492192 2.17969,-9.214849 7.58203,-9.214849 1.92188,0 5.44141,0.691407 5.44141,0.691407"
       id="path3736"
       inkscape:connector-curvature="0" />
    <path
       style="fill:#b82821;fill-opacity:1;fill-rule:nonzero;stroke:none"
       d="m 176.24609,104.94141 h 5.22266 v 6.01953 h -5.22266 z m 0,0"
       id="path3738"
       inkscape:connector-curvature="0" />
    <path
       style="fill:#7f7d7a;fill-opacity:1;fill-rule:nonzero;stroke:none"
       d="m 186.10937,85.28125 h 3.95313 v 25.67969 h -3.95313 z m 0,0"
       id="path3740"
       inkscape:connector-curvature="0" />
    <path
       style="fill:#7f7d7a;fill-opacity:1;fill-rule:nonzero;stroke:none"
       d="m 209.96875,92.828125 v 18.132815 h -3.91406 v -1.125 c 0,0 -2.64844,1.52344 -4.89844,1.52344 -5.18359,0 -6.27344,-2.6836 -6.27344,-9.06641 v -9.464845 h 3.95313 v 9.500005 c 0,4.02734 0.2539,5.51171 3.08203,5.51171 2.17578,0 4.13672,-0.9414 4.13672,-0.9414 V 92.828125 Z m 0,0"
       id="path3742"
       inkscape:connector-curvature="0" />
    <path
       style="fill:#009e7a;fill-opacity:1;fill-rule:nonzero;stroke:none"
       d="M 55.996094,46.359375 V 36.648438 C 48.226562,37.0625 43.351562,40.953125 41.5625,49.257812 h 11.585938 c 0.710937,-1.449218 1.675781,-2.398437 2.847656,-2.898437"
       id="path3744"
       inkscape:connector-curvature="0" />
    <path
       style="fill:#f59e0a;fill-opacity:1;fill-rule:nonzero;stroke:none"
       d="m 51.707031,57.503906 c 0,-3.664062 0.511719,-6.371094 1.4375,-8.246094 H 41.5625 c -0.515625,2.382813 -0.789062,5.109376 -0.789062,8.246094 0,2.714844 0.132812,5.167969 0.429687,7.363282 h 11.289063 c -0.558594,-1.808594 -0.785157,-4.230469 -0.785157,-7.363282"
       id="path3746"
       inkscape:connector-curvature="0" />
    <path
       style="fill:#eb7328;fill-opacity:1;fill-rule:nonzero;stroke:none"
       d="M 52.492188,64.867188 H 41.203125 c 1.226563,9.089843 5.320313,13.703124 14.792969,13.851562 v -9.949219 c -1.742188,-0.539062 -2.855469,-1.796875 -3.503906,-3.902343"
       id="path3748"
       inkscape:connector-curvature="0" />
    <path
       style="fill:#5cabd4;fill-opacity:1;fill-rule:nonzero;stroke:none"
       d="m 66.101562,33.648438 h 5.503907 V 21.480469 h -5.503907 z m 0,0"
       id="path3750"
       inkscape:connector-curvature="0" />
    <path
       style="fill:#3a8aba;fill-opacity:1;fill-rule:nonzero;stroke:none"
       d="m 57.417969,36.597656 c -0.488281,0 -0.953125,0.02734 -1.421875,0.05078 v 9.710937 c 0.675781,-0.285156 1.417968,-0.433594 2.226562,-0.433594 3.457032,0 7.878906,0.804688 7.878906,0.804688 v 2.527343 h 5.503907 V 33.648438 h -5.503907 v 4.074218 c 0,0 -5.707031,-1.125 -8.683593,-1.125"
       id="path3752"
       inkscape:connector-curvature="0" />
    <path
       style="fill:#e6614c;fill-opacity:1;fill-rule:nonzero;stroke:none"
       d="m 66.101562,64.867188 h 5.503907 V 49.257812 h -5.503907 z m 0,0"
       id="path3754"
       inkscape:connector-curvature="0" />
    <path
       style="fill:#cf3d33;fill-opacity:1;fill-rule:nonzero;stroke:none"
       d="m 66.101562,64.867188 v 3.011718 c 0,0 -4.019531,1.207032 -7.800781,1.207032 -0.871093,0 -1.632812,-0.109376 -2.304687,-0.316407 v 9.949219 c 0.15625,0 0.296875,0.01563 0.457031,0.01563 4.101563,0 9.730469,-2.65625 9.730469,-2.65625 v 1.691406 h 5.421875 V 64.867188 Z m 0,0"
       id="path3756"
       inkscape:connector-curvature="0" />
    <path
       style="fill:#2e7fc2;fill-opacity:1;fill-rule:nonzero;stroke:none"
       d="m 76.878906,21.480469 h -5.273437 v 12.167969 h 5.273437 z m 0,0"
       id="path3758"
       inkscape:connector-curvature="0" />
    <path
       style="fill:#2861a8;fill-opacity:1;fill-rule:nonzero;stroke:none"
       d="m 71.605469,49.257812 h 5.273437 V 33.648438 h -5.273437 z m 0,0"
       id="path3760"
       inkscape:connector-curvature="0" />
    <path
       style="fill:#dc3d2b;fill-opacity:1;fill-rule:nonzero;stroke:none"
       d="m 71.605469,64.867188 h 5.273437 V 49.257812 h -5.273437 z m 0,0"
       id="path3762"
       inkscape:connector-curvature="0" />
    <path
       style="fill:#b82821;fill-opacity:1;fill-rule:nonzero;stroke:none"
       d="m 71.605469,77.769531 h 5.273437 v -12.90625 h -5.273437 z m 0,0"
       id="path3764"
       inkscape:connector-curvature="0" />
    <path
       style="fill:#3d9e51;fill-opacity:1;fill-rule:nonzero;stroke:none"
       d="m 38.246094,19.667969 h -5.4375 v -5.4375 h 5.4375 z m 0,0"
       id="path3766"
       inkscape:connector-curvature="0" />
    <path
       style="fill:#66b35e;fill-opacity:1;fill-rule:nonzero;stroke:none"
       d="m 41.703125,38.992188 h -5.4375 v -5.4375 h 5.4375 z m 0,0"
       id="path3768"
       inkscape:connector-curvature="0" />
    <path
       style="fill:#5cabd4;fill-opacity:1;fill-rule:nonzero;stroke:none"
       d="m 62.890625,32.570312 h -5.4375 v -5.4375 h 5.4375 z m 0,0"
       id="path3770"
       inkscape:connector-curvature="0" />
    <path
       style="fill:#2bae91;fill-opacity:1;fill-rule:nonzero;stroke:none"
       d="m 51.320312,26.058594 h -5.378906 v -5.378906 h 5.378906 z m 0,0"
       id="path3772"
       inkscape:connector-curvature="0" />
    <path
       style="fill:#f8dc59;fill-opacity:1;fill-rule:nonzero;stroke:none"
       d="m 35.410156,57.765625 h -5.4375 v -5.4375 h 5.4375 z m 0,0"
       id="path3774"
       inkscape:connector-curvature="0" />
    <path
       style="fill:#f8c500;fill-opacity:1;fill-rule:nonzero;stroke:none"
       d="m 28.128906,66.4375 h -5.4375 V 61 h 5.4375 z m 0,0"
       id="path3776"
       inkscape:connector-curvature="0" />
    <path
       style="fill:#3d9e51;fill-opacity:1;fill-rule:nonzero;stroke:none"
       d="m 34.175781,30.695312 -5.4375,-0.08594 0.08594,-5.433594 5.4375,0.08594 z m 0,0"
       id="path3778"
       inkscape:connector-curvature="0" />
    <path
       style="fill:#eb7328;fill-opacity:1;fill-rule:nonzero;stroke:none"
       d="m 36.757812,76.589844 h -5.4375 v -5.4375 h 5.4375 z m 0,0"
       id="path3780"
       inkscape:connector-curvature="0" />
    <path
       style="fill:#f59e0a;fill-opacity:1;fill-rule:nonzero;stroke:none"
       d="m 22.035156,77.09375 h -5.433594 v -5.433594 h 5.433594 z m 0,0"
       id="path3782"
       inkscape:connector-curvature="0" />
  </g>
</svg>
