<?xml version="1.0" encoding="UTF-8" standalone="no"?>
<svg
   xmlns:dc="http://purl.org/dc/elements/1.1/"
   xmlns:cc="http://creativecommons.org/ns#"
   xmlns:rdf="http://www.w3.org/1999/02/22-rdf-syntax-ns#"
   xmlns:svg="http://www.w3.org/2000/svg"
   xmlns="http://www.w3.org/2000/svg"
   xmlns:sodipodi="http://sodipodi.sourceforge.net/DTD/sodipodi-0.dtd"
   xmlns:inkscape="http://www.inkscape.org/namespaces/inkscape"
   width="483.636pt"
   height="116.97pt"
   viewBox="0 0 483.636 116.97"
   version="1.2"
   id="svg3898"
   sodipodi:docname="logo-url.pdf"
   inkscape:version="0.92.2 5c3e80d, 2017-08-06">
  <metadata
     id="metadata3904">
    <rdf:RDF>
      <cc:Work
         rdf:about="">
        <dc:format>image/svg+xml</dc:format>
        <dc:type
           rdf:resource="http://purl.org/dc/dcmitype/StillImage" />
        <dc:title></dc:title>
      </cc:Work>
    </rdf:RDF>
  </metadata>
  <defs
     id="defs3902" />
  <sodipodi:namedview
     pagecolor="#ffffff"
     bordercolor="#666666"
     borderopacity="1"
     objecttolerance="10"
     gridtolerance="10"
     guidetolerance="10"
     inkscape:pageopacity="0"
     inkscape:pageshadow="2"
     inkscape:window-width="950"
     inkscape:window-height="496"
     id="namedview3900"
     showgrid="false"
     inkscape:zoom="1.1568618"
     inkscape:cx="322.42399"
     inkscape:cy="77.980001"
     inkscape:window-x="0"
     inkscape:window-y="54"
     inkscape:window-maximized="0"
     inkscape:current-layer="svg3898" />
  <g
     id="surface21421">
    <path
       style=" stroke:none;fill-rule:nonzero;fill:rgb(27.799988%,26.298523%,25.498962%);fill-opacity:1;"
       d="M 90.703125 67.585938 C 88.0625 67.816406 86.476562 69.097656 86.476562 71.816406 C 86.476562 74.460938 87.457031 76.273438 90.175781 76.273438 C 93.421875 76.273438 97.578125 75.066406 97.578125 75.066406 L 97.578125 66.984375 Z M 107.695312 73.328125 C 107.847656 75.59375 108.148438 76.5 110.1875 76.875 L 109.886719 84.503906 C 104.828125 84.503906 102.257812 83.976562 99.085938 81.859375 C 99.085938 81.859375 93.648438 84.503906 87.988281 84.503906 C 80.054688 84.503906 76.28125 80.125 76.28125 72.117188 C 76.28125 63.585938 81.1875 61.167969 89.496094 60.566406 L 97.578125 59.960938 L 97.578125 57.621094 C 97.578125 54.371094 96.140625 53.542969 93.121094 53.542969 C 88.136719 53.542969 78.921875 54.148438 78.921875 54.148438 L 78.621094 47.121094 C 78.621094 47.121094 86.703125 44.933594 93.953125 44.933594 C 103.769531 44.933594 107.695312 48.785156 107.695312 57.621094 Z M 107.695312 73.328125 "
       id="path3831" />
    <path
       style=" stroke:none;fill-rule:nonzero;fill:rgb(27.799988%,26.298523%,25.498962%);fill-opacity:1;"
       d="M 128.984375 54.449219 L 128.984375 69.929688 C 128.984375 73.707031 128.984375 75.441406 132.15625 75.441406 C 134.273438 75.441406 137.898438 75.289062 137.898438 75.289062 L 138.351562 83.371094 C 138.351562 83.371094 133.289062 84.503906 130.648438 84.503906 C 121.507812 84.503906 118.867188 81.03125 118.867188 70.15625 L 118.867188 54.449219 L 114.410156 54.449219 L 114.410156 45.839844 L 118.867188 45.839844 L 118.867188 35.34375 L 128.984375 35.34375 L 128.984375 45.839844 L 138.273438 45.839844 L 138.273438 54.449219 Z M 128.984375 54.449219 "
       id="path3833" />
    <path
       style=" stroke:none;fill-rule:nonzero;fill:rgb(27.799988%,26.298523%,25.498962%);fill-opacity:1;"
       d="M 156.773438 67.585938 C 154.128906 67.816406 152.542969 69.097656 152.542969 71.816406 C 152.542969 74.460938 153.523438 76.273438 156.242188 76.273438 C 159.492188 76.273438 163.644531 75.066406 163.644531 75.066406 L 163.644531 66.984375 Z M 173.765625 73.328125 C 173.914062 75.59375 174.21875 76.5 176.253906 76.875 L 175.953125 84.503906 C 170.894531 84.503906 168.328125 83.976562 165.15625 81.859375 C 165.15625 81.859375 159.71875 84.503906 154.054688 84.503906 C 146.125 84.503906 142.347656 80.125 142.347656 72.117188 C 142.347656 63.585938 147.257812 61.167969 155.5625 60.566406 L 163.644531 59.960938 L 163.644531 57.621094 C 163.644531 54.371094 162.210938 53.542969 159.1875 53.542969 C 154.203125 53.542969 144.992188 54.148438 144.992188 54.148438 L 144.6875 47.121094 C 144.6875 47.121094 152.769531 44.933594 160.019531 44.933594 C 169.835938 44.933594 173.765625 48.785156 173.765625 57.621094 Z M 173.765625 73.328125 "
       id="path3835" />
    <path
       style=" stroke:none;fill-rule:nonzero;fill:rgb(72.198486%,16.899109%,13.699341%);fill-opacity:1;"
       d="M 182.972656 71.0625 L 193.84375 71.0625 L 193.84375 83.597656 L 182.972656 83.597656 Z M 182.972656 71.0625 "
       id="path3837" />
    <path
       style=" stroke:none;fill-rule:nonzero;fill:rgb(50.59967%,49.398804%,48.999023%);fill-opacity:1;"
       d="M 211.832031 54.675781 L 211.832031 76.945312 C 212.207031 77.019531 215.832031 77.550781 218.476562 77.550781 C 225.496094 77.550781 227.535156 73.851562 227.535156 64.5625 C 227.535156 55.730469 224.742188 52.558594 220.058594 52.558594 C 216.058594 52.558594 211.832031 54.675781 211.832031 54.675781 M 203.601562 46.066406 L 211.753906 46.066406 L 211.753906 48.40625 C 211.753906 48.40625 216.964844 45.238281 221.496094 45.238281 C 231.308594 45.238281 235.914062 50.824219 235.914062 64.5625 C 235.914062 80.117188 230.628906 84.644531 219.003906 84.644531 C 215.90625 84.644531 212.285156 84.042969 211.832031 83.964844 L 211.832031 100.046875 L 203.601562 100.046875 Z M 203.601562 46.066406 "
       id="path3839" />
    <path
       style=" stroke:none;fill-rule:nonzero;fill:rgb(50.59967%,49.398804%,48.999023%);fill-opacity:1;"
       d="M 275.175781 46.066406 L 275.175781 83.816406 L 267.023438 83.816406 L 267.023438 81.476562 C 267.023438 81.476562 261.507812 84.644531 256.828125 84.644531 C 246.03125 84.644531 243.769531 79.058594 243.769531 65.773438 L 243.769531 46.066406 L 251.996094 46.066406 L 251.996094 65.847656 C 251.996094 74.226562 252.527344 77.324219 258.414062 77.324219 C 262.945312 77.324219 267.023438 75.359375 267.023438 75.359375 L 267.023438 46.066406 Z M 275.175781 46.066406 "
       id="path3841" />
    <path
       style=" stroke:none;fill-rule:nonzero;fill:rgb(50.59967%,49.398804%,48.999023%);fill-opacity:1;"
       d="M 309 64.414062 C 309 55.882812 306.8125 52.558594 301.753906 52.558594 C 297.75 52.558594 293.296875 54.070312 293.296875 54.070312 L 293.296875 77.019531 C 293.296875 77.019531 297.449219 77.324219 298.957031 77.324219 C 307.339844 77.324219 309 73.625 309 64.414062 M 317.378906 64.414062 C 317.378906 80.039062 312.472656 84.644531 298.957031 84.644531 C 294.957031 84.644531 285.144531 83.738281 285.144531 83.738281 L 285.144531 30.363281 L 293.296875 30.363281 L 293.296875 47.5 C 293.296875 47.5 298.503906 45.238281 302.734375 45.238281 C 313 45.238281 317.378906 50.292969 317.378906 64.414062 "
       id="path3843" />
    <path
       style=" stroke:none;fill-rule:nonzero;fill:rgb(50.59967%,49.398804%,48.999023%);fill-opacity:1;"
       d="M 326.066406 30.363281 L 334.292969 30.363281 L 334.292969 83.816406 L 326.066406 83.816406 Z M 326.066406 30.363281 "
       id="path3845" />
    <path
       style=" stroke:none;fill-rule:nonzero;fill:rgb(50.59967%,49.398804%,48.999023%);fill-opacity:1;"
       d="M 344.714844 46.066406 L 352.941406 46.066406 L 352.941406 83.816406 L 344.714844 83.816406 Z M 344.714844 30.96875 L 352.941406 30.96875 L 352.941406 39.648438 L 344.714844 39.648438 Z M 344.714844 30.96875 "
       id="path3847" />
    <path
       style=" stroke:none;fill-rule:nonzero;fill:rgb(50.59967%,49.398804%,48.999023%);fill-opacity:1;"
       d="M 388.351562 46.671875 L 388.050781 53.164062 C 388.050781 53.164062 382.085938 52.558594 379.214844 52.558594 C 371.367188 52.558594 369.550781 55.730469 369.550781 64.414062 C 369.550781 74.078125 371.136719 77.324219 379.292969 77.324219 C 382.160156 77.324219 388.125 76.71875 388.125 76.71875 L 388.351562 83.285156 C 388.351562 83.285156 380.726562 84.644531 376.875 84.644531 C 365.25 84.644531 361.25 78.90625 361.25 64.414062 C 361.25 50.898438 365.777344 45.238281 377.027344 45.238281 C 381.027344 45.238281 388.351562 46.671875 388.351562 46.671875 "
       id="path3849" />
    <path
       style=" stroke:none;fill-rule:nonzero;fill:rgb(72.198486%,16.899109%,13.699341%);fill-opacity:1;"
       d="M 395.523438 71.28125 L 406.398438 71.28125 L 406.398438 83.816406 L 395.523438 83.816406 Z M 395.523438 71.28125 "
       id="path3851" />
    <path
       style=" stroke:none;fill-rule:nonzero;fill:rgb(50.59967%,49.398804%,48.999023%);fill-opacity:1;"
       d="M 416.0625 30.363281 L 424.289062 30.363281 L 424.289062 83.816406 L 416.0625 83.816406 Z M 416.0625 30.363281 "
       id="path3853" />
    <path
       style=" stroke:none;fill-rule:nonzero;fill:rgb(50.59967%,49.398804%,48.999023%);fill-opacity:1;"
       d="M 465.738281 46.066406 L 465.738281 83.816406 L 457.585938 83.816406 L 457.585938 81.476562 C 457.585938 81.476562 452.074219 84.644531 447.394531 84.644531 C 436.597656 84.644531 434.332031 79.058594 434.332031 65.773438 L 434.332031 46.066406 L 442.5625 46.066406 L 442.5625 65.847656 C 442.5625 74.226562 443.089844 77.324219 448.980469 77.324219 C 453.507812 77.324219 457.585938 75.359375 457.585938 75.359375 L 457.585938 46.066406 Z M 465.738281 46.066406 "
       id="path3855" />
    <path
       style=" stroke:none;fill-rule:nonzero;fill:rgb(0%,62.69989%,48.999023%);fill-opacity:1;"
       d="M 49.804688 54.101562 L 49.804688 44.980469 C 42.507812 45.371094 37.929688 49.023438 36.246094 56.820312 L 47.128906 56.820312 C 47.796875 55.460938 48.703125 54.570312 49.804688 54.101562 "
       id="path3857" />
    <path
       style=" stroke:none;fill-rule:nonzero;fill:rgb(96.099854%,62.399292%,4.699707%);fill-opacity:1;"
       d="M 45.777344 64.566406 C 45.777344 61.125 46.257812 58.582031 47.128906 56.820312 L 36.246094 56.820312 C 35.765625 59.058594 35.503906 61.621094 35.503906 64.566406 C 35.503906 67.117188 35.632812 69.417969 35.910156 71.480469 L 46.511719 71.480469 C 45.988281 69.785156 45.777344 67.507812 45.777344 64.566406 "
       id="path3859" />
    <path
       style=" stroke:none;fill-rule:nonzero;fill:rgb(92.89856%,45.098877%,16.499329%);fill-opacity:1;"
       d="M 46.511719 71.480469 L 35.910156 71.480469 C 37.0625 80.019531 40.90625 84.347656 49.804688 84.488281 L 49.804688 75.144531 C 48.167969 74.640625 47.121094 73.460938 46.511719 71.480469 "
       id="path3861" />
    <path
       style=" stroke:none;fill-rule:nonzero;fill:rgb(36.099243%,67.498779%,83.099365%);fill-opacity:1;"
       d="M 59.292969 42.160156 L 64.460938 42.160156 L 64.460938 30.734375 L 59.292969 30.734375 Z M 59.292969 42.160156 "
       id="path3863" />
    <path
       style=" stroke:none;fill-rule:nonzero;fill:rgb(23.498535%,54.899597%,73.298645%);fill-opacity:1;"
       d="M 51.136719 44.933594 C 50.679688 44.933594 50.242188 44.957031 49.804688 44.980469 L 49.804688 54.101562 C 50.4375 53.828125 51.136719 53.691406 51.894531 53.691406 C 55.140625 53.691406 59.292969 54.449219 59.292969 54.449219 L 59.292969 56.820312 L 64.460938 56.820312 L 64.460938 42.160156 L 59.292969 42.160156 L 59.292969 45.988281 C 59.292969 45.988281 53.933594 44.933594 51.136719 44.933594 "
       id="path3865" />
    <path
       style=" stroke:none;fill-rule:nonzero;fill:rgb(90.99884%,38.798523%,30.599976%);fill-opacity:1;"
       d="M 59.292969 71.480469 L 64.460938 71.480469 L 64.460938 56.820312 L 59.292969 56.820312 Z M 59.292969 71.480469 "
       id="path3867" />
    <path
       style=" stroke:none;fill-rule:nonzero;fill:rgb(81.599426%,24.299622%,20.799255%);fill-opacity:1;"
       d="M 59.292969 71.480469 L 59.292969 74.308594 C 59.292969 74.308594 55.519531 75.441406 51.96875 75.441406 C 51.148438 75.441406 50.433594 75.339844 49.804688 75.144531 L 49.804688 84.488281 C 49.949219 84.488281 50.082031 84.503906 50.230469 84.503906 C 54.082031 84.503906 59.371094 82.011719 59.371094 82.011719 L 59.371094 83.597656 L 64.460938 83.597656 L 64.460938 71.480469 Z M 59.292969 71.480469 "
       id="path3869" />
    <path
       style=" stroke:none;fill-rule:nonzero;fill:rgb(18.798828%,50.19989%,76.098633%);fill-opacity:1;"
       d="M 69.414062 30.734375 L 64.460938 30.734375 L 64.460938 42.160156 L 69.414062 42.160156 Z M 69.414062 30.734375 "
       id="path3871" />
    <path
       style=" stroke:none;fill-rule:nonzero;fill:rgb(16.899109%,38.798523%,66.699219%);fill-opacity:1;"
       d="M 64.460938 56.820312 L 69.414062 56.820312 L 69.414062 42.160156 L 64.460938 42.160156 Z M 64.460938 56.820312 "
       id="path3873" />
    <path
       style=" stroke:none;fill-rule:nonzero;fill:rgb(86.299133%,24.299622%,17.599487%);fill-opacity:1;"
       d="M 64.460938 71.480469 L 69.414062 71.480469 L 69.414062 56.820312 L 64.460938 56.820312 Z M 64.460938 71.480469 "
       id="path3875" />
    <path
       style=" stroke:none;fill-rule:nonzero;fill:rgb(72.198486%,16.899109%,13.699341%);fill-opacity:1;"
       d="M 64.460938 83.597656 L 69.414062 83.597656 L 69.414062 71.480469 L 64.460938 71.480469 Z M 64.460938 83.597656 "
       id="path3877" />
    <path
       style=" stroke:none;fill-rule:nonzero;fill:rgb(24.699402%,62.69989%,32.199097%);fill-opacity:1;"
       d="M 33.132812 29.03125 L 28.027344 29.03125 L 28.027344 23.929688 L 33.132812 23.929688 Z M 33.132812 29.03125 "
       id="path3879" />
    <path
       style=" stroke:none;fill-rule:nonzero;fill:rgb(40.39917%,70.999146%,37.998962%);fill-opacity:1;"
       d="M 36.378906 47.183594 L 31.273438 47.183594 L 31.273438 42.078125 L 36.378906 42.078125 Z M 36.378906 47.183594 "
       id="path3881" />
    <path
       style=" stroke:none;fill-rule:nonzero;fill:rgb(36.099243%,67.498779%,83.099365%);fill-opacity:1;"
       d="M 56.277344 41.148438 L 51.171875 41.148438 L 51.171875 36.042969 L 56.277344 36.042969 Z M 56.277344 41.148438 "
       id="path3883" />
    <path
       style=" stroke:none;fill-rule:nonzero;fill:rgb(17.599487%,68.998718%,57.598877%);fill-opacity:1;"
       d="M 45.410156 35.035156 L 40.359375 35.035156 L 40.359375 29.980469 L 45.410156 29.980469 Z M 45.410156 35.035156 "
       id="path3885" />
    <path
       style=" stroke:none;fill-rule:nonzero;fill:rgb(97.599792%,86.299133%,35.699463%);fill-opacity:1;"
       d="M 30.46875 64.8125 L 25.363281 64.8125 L 25.363281 59.707031 L 30.46875 59.707031 Z M 30.46875 64.8125 "
       id="path3887" />
    <path
       style=" stroke:none;fill-rule:nonzero;fill:rgb(97.999573%,77.999878%,0%);fill-opacity:1;"
       d="M 23.632812 72.953125 L 18.527344 72.953125 L 18.527344 67.851562 L 23.632812 67.851562 Z M 23.632812 72.953125 "
       id="path3889" />
    <path
       style=" stroke:none;fill-rule:nonzero;fill:rgb(24.699402%,62.69989%,32.199097%);fill-opacity:1;"
       d="M 29.308594 39.390625 L 24.207031 39.308594 L 24.289062 34.207031 L 29.390625 34.285156 Z M 29.308594 39.390625 "
       id="path3891" />
    <path
       style=" stroke:none;fill-rule:nonzero;fill:rgb(92.89856%,45.098877%,16.499329%);fill-opacity:1;"
       d="M 31.734375 82.488281 L 26.628906 82.488281 L 26.628906 77.382812 L 31.734375 77.382812 Z M 31.734375 82.488281 "
       id="path3893" />
    <path
       style=" stroke:none;fill-rule:nonzero;fill:rgb(96.099854%,62.399292%,4.699707%);fill-opacity:1;"
       d="M 17.910156 82.964844 L 12.804688 82.964844 L 12.804688 77.859375 L 17.910156 77.859375 Z M 17.910156 82.964844 "
       id="path3895" />
  </g>
</svg>
