<svg enable-background="new 0 0 193.4 104.5" viewBox="0 0 193.4 104.5" xmlns="http://www.w3.org/2000/svg"><g transform="translate(-16.601562 -14.230469)"><path d="m99.5 60.7c-2.8.3-4.5 1.6-4.5 4.5 0 2.8 1 4.7 3.9 4.7 3.5 0 7.9-1.3 7.9-1.3v-8.6zm18.1 6.1c.2 2.4.5 3.4 2.7 3.8l-.3 8.1c-5.4 0-8.1-.6-11.5-2.8 0 0-5.8 2.8-11.8 2.8-8.4 0-12.5-4.7-12.5-13.2 0-9.1 5.2-11.7 14.1-12.3l8.6-.6v-2.5c0-3.5-1.5-4.3-4.7-4.3-5.3 0-15.1.6-15.1.6l-.3-7.5s8.6-2.3 16.3-2.3c10.5 0 14.6 4.1 14.6 13.5v16.7z" fill="#45423f"/><path d="m140.3 46.7v16.5c0 4 0 5.9 3.4 5.9 2.3 0 6.1-.2 6.1-.2l.5 8.6s-5.4 1.2-8.2 1.2c-9.7 0-12.5-3.7-12.5-15.3v-16.7h-4.7v-9.2h4.7v-11.1h10.8v11.2h9.9v9.2h-10z" fill="#45423f"/><path d="m169.9 60.7c-2.8.2-4.5 1.6-4.5 4.5 0 2.8 1 4.7 3.9 4.7 3.5 0 7.9-1.3 7.9-1.3v-8.6zm18.1 6.1c.2 2.4.5 3.4 2.7 3.8l-.3 8.1c-5.4 0-8.1-.6-11.5-2.8 0 0-5.8 2.8-11.8 2.8-8.4 0-12.5-4.7-12.5-13.2 0-9.1 5.2-11.7 14.1-12.3l8.6-.6v-2.5c0-3.5-1.5-4.3-4.7-4.3-5.3 0-15.1.6-15.1.6l-.3-7.5s8.6-2.3 16.3-2.3c10.5 0 14.6 4.1 14.6 13.5v16.7z" fill="#45423f"/><path d="m197.8 65.4h11.6v13.3h-11.6z" fill="#b82821"/><g fill="#7f7d7a"><path d="m88 97v10.7c.2 0 1.9.3 3.2.3 3.4 0 4.4-1.8 4.4-6.2 0-4.2-1.3-5.8-3.6-5.8-1.9-.1-4 1-4 1m-3.9-4.2h3.9v1.1s2.5-1.5 4.7-1.5c4.7 0 6.9 2.7 6.9 9.3 0 7.5-2.5 9.6-8.1 9.6-1.5 0-3.2-.3-3.4-.3v7.7h-4z"/><path d="m118.4 92.8v18.2h-3.9v-1.1s-2.6 1.5-4.9 1.5c-5.2 0-6.3-2.7-6.3-9.1v-9.5h4v9.5c0 4 .3 5.5 3.1 5.5 2.2 0 4.1-.9 4.1-.9v-14.1z"/><path d="m134.7 101.6c0-4.1-1.1-5.7-3.5-5.7-1.9 0-4.1.7-4.1.7v11s2 .1 2.7.1c4.1.1 4.9-1.6 4.9-6.1m4 0c0 7.5-2.4 9.7-8.9 9.7-1.9 0-6.6-.4-6.6-.4v-25.6h3.9v8.2s2.5-1.1 4.5-1.1c5 0 7.1 2.5 7.1 9.2"/><path d="m142.9 85.3h4v25.7h-4z"/><path d="m151.8 92.8h4v18.2h-4zm0-7.2h4v4.2h-4z"/><path d="m172.8 93.1-.1 3.1s-2.9-.3-4.2-.3c-3.8 0-4.6 1.5-4.6 5.7 0 4.6.8 6.2 4.7 6.2 1.4 0 4.2-.3 4.2-.3l.1 3.2s-3.7.7-5.5.7c-5.6 0-7.5-2.8-7.5-9.7 0-6.5 2.2-9.2 7.6-9.2 1.8-.1 5.3.6 5.3.6"/></g><path d="m176.8 105.3h5.2v6h-5.2z" fill="#b82821"/><path d="m186.1 85.3h4v25.7h-4z" fill="#7f7d7a"/><path d="m210 92.8v18.2h-3.9v-1.1s-2.6 1.5-4.9 1.5c-5.2 0-6.3-2.7-6.3-9.1v-9.5h4v9.5c0 4 .3 5.5 3.1 5.5 2.2 0 4.1-.9 4.1-.9v-14.1z" fill="#7f7d7a"/><path d="m56 46.4v-9.7c-7.8.4-12.6 4.3-14.4 12.6h11.6c.7-1.5 1.6-2.4 2.8-2.9" fill="#009e7a"/><path d="m51.7 57.5c0-3.7.5-6.4 1.4-8.2h-11.5c-.5 2.4-.8 5.1-.8 8.2 0 2.7.1 5.2.4 7.4h11.3c-.6-1.8-.8-4.3-.8-7.4" fill="#f59e0a"/><path d="m52.5 64.9h-11.3c1.2 9.1 5.3 13.7 14.8 13.8v-9.9c-1.7-.6-2.9-1.8-3.5-3.9" fill="#eb7328"/><path d="m66.1 33.6h5.5v-12.1h-5.5z" fill="#5cabd4"/><path d="m57.4 36.6c-.5 0-1 0-1.4.1v9.7c.7-.3 1.4-.4 2.2-.4 3.5 0 7.9.8 7.9.8v2.5h5.5v-15.7h-5.5v4.1s-5.7-1.1-8.7-1.1" fill="#3a8aba"/><path d="m66.1 64.9h5.5v-15.6h-5.5z" fill="#e6614c"/><path d="m66.1 64.9v3s-4 1.2-7.8 1.2c-.9 0-1.6-.1-2.3-.3v9.9h.5c4.1 0 9.7-2.7 9.7-2.7v1.7h5.4v-12.8z" fill="#cf3d33"/><path d="m76.9 21.5h-5.3v12.2h5.3z" fill="#2e7fc2"/><path d="m71.6 49.3h5.3v-15.7h-5.3z" fill="#2861a8"/><path d="m71.6 64.9h5.3v-15.6h-5.3z" fill="#dc3d2b"/><path d="m71.6 77.8h5.3v-12.9h-5.3z" fill="#b82821"/><path d="m38.2 19.7h-5.4v-5.4h5.4z" fill="#3d9e51"/><path d="m41.7 39h-5.4v-5.4h5.4z" fill="#66b35e"/><path d="m62.9 32.6h-5.4v-5.4h5.4z" fill="#5cabd4"/><path d="m51.3 26.1h-5.4v-5.4h5.4z" fill="#2bae91"/><path d="m35.4 57.8h-5.4v-5.4h5.4z" fill="#f8dc59"/><path d="m28.1 66.4h-5.4v-5.4h5.4z" fill="#f8c500"/><path d="m34.2 30.7-5.4-.1.1-5.4 5.4.1z" fill="#3d9e51"/><path d="m36.8 76.6h-5.4v-5.4h5.4z" fill="#eb7328"/><path d="m22 77.1h-5.4v-5.4h5.4z" fill="#f59e0a"/></g></svg>
