<?xml version="1.0" encoding="UTF-8" standalone="no"?>
<svg
   xmlns:dc="http://purl.org/dc/elements/1.1/"
   xmlns:cc="http://creativecommons.org/ns#"
   xmlns:rdf="http://www.w3.org/1999/02/22-rdf-syntax-ns#"
   xmlns:svg="http://www.w3.org/2000/svg"
   xmlns="http://www.w3.org/2000/svg"
   xmlns:sodipodi="http://sodipodi.sourceforge.net/DTD/sodipodi-0.dtd"
   xmlns:inkscape="http://www.inkscape.org/namespaces/inkscape"
   width="229.94pt"
   height="132.335pt"
   viewBox="0 0 229.94 132.335"
   version="1.2"
   id="svg3785"
   sodipodi:docname="logo-bloc.pdf"
   inkscape:version="0.92.2 5c3e80d, 2017-08-06">
  <metadata
     id="metadata3791">
    <rdf:RDF>
      <cc:Work
         rdf:about="">
        <dc:format>image/svg+xml</dc:format>
        <dc:type
           rdf:resource="http://purl.org/dc/dcmitype/StillImage" />
        <dc:title></dc:title>
      </cc:Work>
    </rdf:RDF>
  </metadata>
  <defs
     id="defs3789" />
  <sodipodi:namedview
     pagecolor="#ffffff"
     bordercolor="#666666"
     borderopacity="1"
     objecttolerance="10"
     gridtolerance="10"
     guidetolerance="10"
     inkscape:pageopacity="0"
     inkscape:pageshadow="2"
     inkscape:window-width="3200"
     inkscape:window-height="1690"
     id="namedview3787"
     showgrid="false"
     inkscape:zoom="7.2605896"
     inkscape:cx="153.29333"
     inkscape:cy="88.223338"
     inkscape:window-x="0"
     inkscape:window-y="54"
     inkscape:window-maximized="1"
     inkscape:current-layer="svg3785" />
  <g
     id="surface10302">
    <path
       style=" stroke:none;fill-rule:nonzero;fill:rgb(27.799988%,26.298523%,25.498962%);fill-opacity:1;"
       d="M 99.546875 60.722656 C 96.734375 60.964844 95.046875 62.328125 95.046875 65.226562 C 95.046875 68.039062 96.089844 69.96875 98.984375 69.96875 C 102.445312 69.96875 106.867188 68.683594 106.867188 68.683594 L 106.867188 60.078125 Z M 117.640625 66.832031 C 117.804688 69.246094 118.125 70.210938 120.296875 70.613281 L 119.972656 78.734375 C 114.585938 78.734375 111.851562 78.171875 108.476562 75.921875 C 108.476562 75.921875 102.683594 78.734375 96.652344 78.734375 C 88.210938 78.734375 84.191406 74.070312 84.191406 65.546875 C 84.191406 56.460938 89.417969 53.886719 98.261719 53.242188 L 106.867188 52.601562 L 106.867188 50.105469 C 106.867188 46.648438 105.339844 45.765625 102.121094 45.765625 C 96.816406 45.765625 87.003906 46.410156 87.003906 46.410156 L 86.683594 38.929688 C 86.683594 38.929688 95.285156 36.597656 103.007812 36.597656 C 113.460938 36.597656 117.640625 40.699219 117.640625 50.105469 Z M 117.640625 66.832031 "
       id="path3718" />
    <path
       style=" stroke:none;fill-rule:nonzero;fill:rgb(27.799988%,26.298523%,25.498962%);fill-opacity:1;"
       d="M 140.3125 46.730469 L 140.3125 63.214844 C 140.3125 67.234375 140.3125 69.085938 143.6875 69.085938 C 145.941406 69.085938 149.800781 68.921875 149.800781 68.921875 L 150.28125 77.527344 C 150.28125 77.527344 144.894531 78.734375 142.082031 78.734375 C 132.351562 78.734375 129.535156 75.035156 129.535156 63.457031 L 129.535156 46.730469 L 124.792969 46.730469 L 124.792969 37.5625 L 129.535156 37.5625 L 129.535156 26.386719 L 140.3125 26.386719 L 140.3125 37.5625 L 150.203125 37.5625 L 150.203125 46.730469 Z M 140.3125 46.730469 "
       id="path3720" />
    <path
       style=" stroke:none;fill-rule:nonzero;fill:rgb(27.799988%,26.298523%,25.498962%);fill-opacity:1;"
       d="M 169.898438 60.722656 C 167.085938 60.964844 165.398438 62.328125 165.398438 65.226562 C 165.398438 68.039062 166.441406 69.96875 169.335938 69.96875 C 172.792969 69.96875 177.214844 68.683594 177.214844 68.683594 L 177.214844 60.078125 Z M 187.992188 66.832031 C 188.152344 69.246094 188.472656 70.210938 190.644531 70.613281 L 190.324219 78.734375 C 184.9375 78.734375 182.203125 78.171875 178.824219 75.921875 C 178.824219 75.921875 173.035156 78.734375 167.003906 78.734375 C 158.5625 78.734375 154.539062 74.070312 154.539062 65.546875 C 154.539062 56.460938 159.765625 53.886719 168.613281 53.242188 L 177.214844 52.601562 L 177.214844 50.105469 C 177.214844 46.648438 175.6875 45.765625 172.472656 45.765625 C 167.164062 45.765625 157.355469 46.410156 157.355469 46.410156 L 157.03125 38.929688 C 157.03125 38.929688 165.636719 36.597656 173.355469 36.597656 C 183.8125 36.597656 187.992188 40.699219 187.992188 50.105469 Z M 187.992188 66.832031 "
       id="path3722" />
    <path
       style=" stroke:none;fill-rule:nonzero;fill:rgb(72.198486%,16.899109%,13.699341%);fill-opacity:1;"
       d="M 197.796875 64.421875 L 209.375 64.421875 L 209.375 77.769531 L 197.796875 77.769531 Z M 197.796875 64.421875 "
       id="path3724" />
    <path
       style=" stroke:none;fill-rule:nonzero;fill:rgb(50.59967%,49.398804%,48.999023%);fill-opacity:1;"
       d="M 88.027344 96.960938 L 88.027344 107.660156 C 88.207031 107.695312 89.949219 107.949219 91.21875 107.949219 C 94.589844 107.949219 95.570312 106.171875 95.570312 101.710938 C 95.570312 97.46875 94.230469 95.945312 91.980469 95.945312 C 90.058594 95.945312 88.027344 96.960938 88.027344 96.960938 M 84.074219 92.828125 L 87.992188 92.828125 L 87.992188 93.949219 C 87.992188 93.949219 90.492188 92.425781 92.667969 92.425781 C 97.382812 92.425781 99.597656 95.109375 99.597656 101.710938 C 99.597656 109.183594 97.058594 111.359375 91.472656 111.359375 C 89.984375 111.359375 88.246094 111.070312 88.027344 111.035156 L 88.027344 118.757812 L 84.074219 118.757812 Z M 84.074219 92.828125 "
       id="path3726" />
    <path
       style=" stroke:none;fill-rule:nonzero;fill:rgb(50.59967%,49.398804%,48.999023%);fill-opacity:1;"
       d="M 118.449219 92.828125 L 118.449219 110.960938 L 114.535156 110.960938 L 114.535156 109.835938 C 114.535156 109.835938 111.886719 111.359375 109.636719 111.359375 C 104.453125 111.359375 103.363281 108.675781 103.363281 102.292969 L 103.363281 92.828125 L 107.316406 92.828125 L 107.316406 102.328125 C 107.316406 106.355469 107.570312 107.839844 110.398438 107.839844 C 112.574219 107.839844 114.535156 106.898438 114.535156 106.898438 L 114.535156 92.828125 Z M 118.449219 92.828125 "
       id="path3728" />
    <path
       style=" stroke:none;fill-rule:nonzero;fill:rgb(50.59967%,49.398804%,48.999023%);fill-opacity:1;"
       d="M 134.695312 101.640625 C 134.695312 97.539062 133.644531 95.945312 131.214844 95.945312 C 129.292969 95.945312 127.152344 96.671875 127.152344 96.671875 L 127.152344 107.699219 C 127.152344 107.699219 129.144531 107.839844 129.871094 107.839844 C 133.898438 107.839844 134.695312 106.0625 134.695312 101.640625 M 138.722656 101.640625 C 138.722656 109.144531 136.363281 111.359375 129.871094 111.359375 C 127.949219 111.359375 123.234375 110.925781 123.234375 110.925781 L 123.234375 85.28125 L 127.152344 85.28125 L 127.152344 93.515625 C 127.152344 93.515625 129.65625 92.425781 131.6875 92.425781 C 136.617188 92.425781 138.722656 94.859375 138.722656 101.640625 "
       id="path3730" />
    <path
       style=" stroke:none;fill-rule:nonzero;fill:rgb(50.59967%,49.398804%,48.999023%);fill-opacity:1;"
       d="M 142.886719 85.28125 L 146.839844 85.28125 L 146.839844 110.960938 L 142.886719 110.960938 Z M 142.886719 85.28125 "
       id="path3732" />
    <path
       style=" stroke:none;fill-rule:nonzero;fill:rgb(50.59967%,49.398804%,48.999023%);fill-opacity:1;"
       d="M 151.84375 92.828125 L 155.796875 92.828125 L 155.796875 110.960938 L 151.84375 110.960938 Z M 151.84375 85.574219 L 155.796875 85.574219 L 155.796875 89.742188 L 151.84375 89.742188 Z M 151.84375 85.574219 "
       id="path3734" />
    <path
       style=" stroke:none;fill-rule:nonzero;fill:rgb(50.59967%,49.398804%,48.999023%);fill-opacity:1;"
       d="M 172.804688 93.117188 L 172.660156 96.234375 C 172.660156 96.234375 169.792969 95.945312 168.414062 95.945312 C 164.644531 95.945312 163.773438 97.46875 163.773438 101.640625 C 163.773438 106.28125 164.535156 107.839844 168.453125 107.839844 C 169.828125 107.839844 172.695312 107.550781 172.695312 107.550781 L 172.804688 110.707031 C 172.804688 110.707031 169.140625 111.359375 167.289062 111.359375 C 161.707031 111.359375 159.78125 108.601562 159.78125 101.640625 C 159.78125 95.148438 161.960938 92.425781 167.363281 92.425781 C 169.285156 92.425781 172.804688 93.117188 172.804688 93.117188 "
       id="path3736" />
    <path
       style=" stroke:none;fill-rule:nonzero;fill:rgb(72.198486%,16.899109%,13.699341%);fill-opacity:1;"
       d="M 176.246094 104.941406 L 181.46875 104.941406 L 181.46875 110.960938 L 176.246094 110.960938 Z M 176.246094 104.941406 "
       id="path3738" />
    <path
       style=" stroke:none;fill-rule:nonzero;fill:rgb(50.59967%,49.398804%,48.999023%);fill-opacity:1;"
       d="M 186.109375 85.28125 L 190.0625 85.28125 L 190.0625 110.960938 L 186.109375 110.960938 Z M 186.109375 85.28125 "
       id="path3740" />
    <path
       style=" stroke:none;fill-rule:nonzero;fill:rgb(50.59967%,49.398804%,48.999023%);fill-opacity:1;"
       d="M 209.96875 92.828125 L 209.96875 110.960938 L 206.054688 110.960938 L 206.054688 109.835938 C 206.054688 109.835938 203.40625 111.359375 201.15625 111.359375 C 195.972656 111.359375 194.882812 108.675781 194.882812 102.292969 L 194.882812 92.828125 L 198.835938 92.828125 L 198.835938 102.328125 C 198.835938 106.355469 199.089844 107.839844 201.917969 107.839844 C 204.09375 107.839844 206.054688 106.898438 206.054688 106.898438 L 206.054688 92.828125 Z M 209.96875 92.828125 "
       id="path3742" />
    <path
       style=" stroke:none;fill-rule:nonzero;fill:rgb(0%,62.69989%,48.999023%);fill-opacity:1;"
       d="M 55.996094 46.359375 L 55.996094 36.648438 C 48.226562 37.0625 43.351562 40.953125 41.5625 49.257812 L 53.148438 49.257812 C 53.859375 47.808594 54.824219 46.859375 55.996094 46.359375 "
       id="path3744" />
    <path
       style=" stroke:none;fill-rule:nonzero;fill:rgb(96.099854%,62.399292%,4.699707%);fill-opacity:1;"
       d="M 51.707031 57.503906 C 51.707031 53.839844 52.21875 51.132812 53.144531 49.257812 L 41.5625 49.257812 C 41.046875 51.640625 40.773438 54.367188 40.773438 57.503906 C 40.773438 60.21875 40.90625 62.671875 41.203125 64.867188 L 52.492188 64.867188 C 51.933594 63.058594 51.707031 60.636719 51.707031 57.503906 "
       id="path3746" />
    <path
       style=" stroke:none;fill-rule:nonzero;fill:rgb(92.89856%,45.098877%,16.499329%);fill-opacity:1;"
       d="M 52.492188 64.867188 L 41.203125 64.867188 C 42.429688 73.957031 46.523438 78.570312 55.996094 78.71875 L 55.996094 68.769531 C 54.253906 68.230469 53.140625 66.972656 52.492188 64.867188 "
       id="path3748" />
    <path
       style=" stroke:none;fill-rule:nonzero;fill:rgb(36.099243%,67.498779%,83.099365%);fill-opacity:1;"
       d="M 66.101562 33.648438 L 71.605469 33.648438 L 71.605469 21.480469 L 66.101562 21.480469 Z M 66.101562 33.648438 "
       id="path3750" />
    <path
       style=" stroke:none;fill-rule:nonzero;fill:rgb(23.498535%,54.899597%,73.298645%);fill-opacity:1;"
       d="M 57.417969 36.597656 C 56.929688 36.597656 56.464844 36.625 55.996094 36.648438 L 55.996094 46.359375 C 56.671875 46.074219 57.414062 45.925781 58.222656 45.925781 C 61.679688 45.925781 66.101562 46.730469 66.101562 46.730469 L 66.101562 49.257812 L 71.605469 49.257812 L 71.605469 33.648438 L 66.101562 33.648438 L 66.101562 37.722656 C 66.101562 37.722656 60.394531 36.597656 57.417969 36.597656 "
       id="path3752" />
    <path
       style=" stroke:none;fill-rule:nonzero;fill:rgb(90.99884%,38.798523%,30.599976%);fill-opacity:1;"
       d="M 66.101562 64.867188 L 71.605469 64.867188 L 71.605469 49.257812 L 66.101562 49.257812 Z M 66.101562 64.867188 "
       id="path3754" />
    <path
       style=" stroke:none;fill-rule:nonzero;fill:rgb(81.599426%,24.299622%,20.799255%);fill-opacity:1;"
       d="M 66.101562 64.867188 L 66.101562 67.878906 C 66.101562 67.878906 62.082031 69.085938 58.300781 69.085938 C 57.429688 69.085938 56.667969 68.976562 55.996094 68.769531 L 55.996094 78.71875 C 56.152344 78.71875 56.292969 78.734375 56.453125 78.734375 C 60.554688 78.734375 66.183594 76.078125 66.183594 76.078125 L 66.183594 77.769531 L 71.605469 77.769531 L 71.605469 64.867188 Z M 66.101562 64.867188 "
       id="path3756" />
    <path
       style=" stroke:none;fill-rule:nonzero;fill:rgb(18.798828%,50.19989%,76.098633%);fill-opacity:1;"
       d="M 76.878906 21.480469 L 71.605469 21.480469 L 71.605469 33.648438 L 76.878906 33.648438 Z M 76.878906 21.480469 "
       id="path3758" />
    <path
       style=" stroke:none;fill-rule:nonzero;fill:rgb(16.899109%,38.798523%,66.699219%);fill-opacity:1;"
       d="M 71.605469 49.257812 L 76.878906 49.257812 L 76.878906 33.648438 L 71.605469 33.648438 Z M 71.605469 49.257812 "
       id="path3760" />
    <path
       style=" stroke:none;fill-rule:nonzero;fill:rgb(86.299133%,24.299622%,17.599487%);fill-opacity:1;"
       d="M 71.605469 64.867188 L 76.878906 64.867188 L 76.878906 49.257812 L 71.605469 49.257812 Z M 71.605469 64.867188 "
       id="path3762" />
    <path
       style=" stroke:none;fill-rule:nonzero;fill:rgb(72.198486%,16.899109%,13.699341%);fill-opacity:1;"
       d="M 71.605469 77.769531 L 76.878906 77.769531 L 76.878906 64.863281 L 71.605469 64.863281 Z M 71.605469 77.769531 "
       id="path3764" />
    <path
       style=" stroke:none;fill-rule:nonzero;fill:rgb(24.699402%,62.69989%,32.199097%);fill-opacity:1;"
       d="M 38.246094 19.667969 L 32.808594 19.667969 L 32.808594 14.230469 L 38.246094 14.230469 Z M 38.246094 19.667969 "
       id="path3766" />
    <path
       style=" stroke:none;fill-rule:nonzero;fill:rgb(40.39917%,70.999146%,37.998962%);fill-opacity:1;"
       d="M 41.703125 38.992188 L 36.265625 38.992188 L 36.265625 33.554688 L 41.703125 33.554688 Z M 41.703125 38.992188 "
       id="path3768" />
    <path
       style=" stroke:none;fill-rule:nonzero;fill:rgb(36.099243%,67.498779%,83.099365%);fill-opacity:1;"
       d="M 62.890625 32.570312 L 57.453125 32.570312 L 57.453125 27.132812 L 62.890625 27.132812 Z M 62.890625 32.570312 "
       id="path3770" />
    <path
       style=" stroke:none;fill-rule:nonzero;fill:rgb(17.599487%,68.998718%,57.598877%);fill-opacity:1;"
       d="M 51.320312 26.058594 L 45.941406 26.058594 L 45.941406 20.679688 L 51.320312 20.679688 Z M 51.320312 26.058594 "
       id="path3772" />
    <path
       style=" stroke:none;fill-rule:nonzero;fill:rgb(97.599792%,86.299133%,35.699463%);fill-opacity:1;"
       d="M 35.410156 57.765625 L 29.972656 57.765625 L 29.972656 52.328125 L 35.410156 52.328125 Z M 35.410156 57.765625 "
       id="path3774" />
    <path
       style=" stroke:none;fill-rule:nonzero;fill:rgb(97.999573%,77.999878%,0%);fill-opacity:1;"
       d="M 28.128906 66.4375 L 22.691406 66.4375 L 22.691406 61 L 28.128906 61 Z M 28.128906 66.4375 "
       id="path3776" />
    <path
       style=" stroke:none;fill-rule:nonzero;fill:rgb(24.699402%,62.69989%,32.199097%);fill-opacity:1;"
       d="M 34.175781 30.695312 L 28.738281 30.609375 L 28.824219 25.175781 L 34.261719 25.261719 Z M 34.175781 30.695312 "
       id="path3778" />
    <path
       style=" stroke:none;fill-rule:nonzero;fill:rgb(92.89856%,45.098877%,16.499329%);fill-opacity:1;"
       d="M 36.757812 76.589844 L 31.320312 76.589844 L 31.320312 71.152344 L 36.757812 71.152344 Z M 36.757812 76.589844 "
       id="path3780" />
    <path
       style=" stroke:none;fill-rule:nonzero;fill:rgb(96.099854%,62.399292%,4.699707%);fill-opacity:1;"
       d="M 22.035156 77.09375 L 16.601562 77.09375 L 16.601562 71.660156 L 22.035156 71.660156 Z M 22.035156 77.09375 "
       id="path3782" />
  </g>
</svg>
