<?xml version="1.0" encoding="UTF-8" standalone="no"?>
<svg
   xmlns:dc="http://purl.org/dc/elements/1.1/"
   xmlns:cc="http://creativecommons.org/ns#"
   xmlns:rdf="http://www.w3.org/1999/02/22-rdf-syntax-ns#"
   xmlns:svg="http://www.w3.org/2000/svg"
   xmlns="http://www.w3.org/2000/svg"
   xmlns:sodipodi="http://sodipodi.sourceforge.net/DTD/sodipodi-0.dtd"
   xmlns:inkscape="http://www.inkscape.org/namespaces/inkscape"
   version="1.0"
   width="1146.000000pt"
   height="280.000000pt"
   viewBox="0 0 1146.000000 280.000000"
   preserveAspectRatio="xMidYMid meet"
   id="svg18"
   sodipodi:docname="renow (1).svg"
   inkscape:version="0.92.2 5c3e80d, 2017-08-06">
  <metadata
     id="metadata24">
    <rdf:RDF>
      <cc:Work
         rdf:about="">
        <dc:format>image/svg+xml</dc:format>
        <dc:type
           rdf:resource="http://purl.org/dc/dcmitype/StillImage" />
      </cc:Work>
    </rdf:RDF>
  </metadata>
  <defs
     id="defs22" />
  <sodipodi:namedview
     pagecolor="#ffffff"
     bordercolor="#666666"
     borderopacity="1"
     objecttolerance="10"
     gridtolerance="10"
     guidetolerance="10"
     inkscape:pageopacity="0"
     inkscape:pageshadow="2"
     inkscape:window-width="3200"
     inkscape:window-height="1746"
     id="namedview20"
     showgrid="false"
     inkscape:zoom="0.96858639"
     inkscape:cx="697.69426"
     inkscape:cy="251.18994"
     inkscape:window-x="0"
     inkscape:window-y="54"
     inkscape:window-maximized="1"
     inkscape:current-layer="svg18" />
  <path
     style="fill:#cd0505;stroke:none;stroke-width:0.1;fill-opacity:1"
     inkscape:connector-curvature="0"
     id="path2"
     d="M 44.6,1.6 C 24.6,6.4 6.3,24.9 1.5,45.1 c -2.2,9.6 -2.2,180.2 0,189.8 3.7,15.4 16.2,31.4 30.1,38.4 13.9,7 9.4,6.7 108.4,6.7 99,0 94.5,0.3 108.4,-6.7 9.6,-4.8 20.1,-15.3 24.9,-24.9 7,-13.9 6.7,-9.4 6.7,-108.4 0,-99 0.3,-94.5 -6.7,-108.4 C 266.3,17.7 250.3,5.2 234.9,1.5 225.7,-0.6 53.7,-0.6 44.6,1.6 Z m 190.9,24.7 c 7.8,3.6 14.6,10.4 18.2,18.1 l 2.8,6.1 v 89.5 89.5 l -2.8,6 c -3.6,7.8 -10.4,14.6 -18.1,18.2 l -6.1,2.8 H 140 50.5 l -6.1,-2.8 C 36.7,250.1 29.9,243.3 26.3,235.5 l -2.8,-6 V 140 50.5 l 2.8,-6 c 4.6,-9.9 12.4,-16.7 23.2,-20.1 3.1,-1 22.8,-1.2 92,-1.1 l 88,0.2 z" />
  <path
     style="fill:#cd0505;stroke:none;stroke-width:0.1;fill-opacity:1"
     inkscape:connector-curvature="0"
     id="path4"
     d="m 219.3,65.5 c -10.7,2.9 -17,7.3 -36,25.1 -20.4,19.1 -39.3,39.9 -62.1,68.1 -6.7,8.4 -12.7,15.3 -13.2,15.3 -0.5,0 -1.6,-1 -2.4,-2.3 -1.3,-2 -22.4,-48.7 -23.9,-52.9 -1.2,-3.4 -5.3,-5 -10.5,-4.3 -5.6,0.7 -14.5,5.7 -17.5,9.7 l -2.1,2.8 2.2,10.7 c 1.2,6 4.4,18.4 7.2,27.7 10,32.8 18,51.7 23.1,54.3 2.9,1.6 17,1.7 22.2,0.2 5.1,-1.4 6.4,-2.9 36.9,-41.4 30.3,-38.3 73.1,-90.1 84.9,-102.7 5.2,-5.7 7.9,-9.3 7.5,-10.3 -0.7,-1.9 -9.1,-1.9 -16.3,0 z" />
  <g
     id="g857">
    <path
       d="m 662.7,46 c -23.8,4.3 -39.2,16 -44.8,34.1 -1.8,5.7 -1.9,10 -1.9,64 V 202 h 19.9 20 l 0.3,-50.3 c 0.3,-49.6 0.3,-50.3 2.5,-54.3 4.6,-8.5 11.2,-11.8 22.7,-11.2 8.1,0.4 12.6,2.6 16.4,8.2 3.8,5.6 4.2,10.5 4.2,59.8 V 202 h 20.6 20.5 l -0.3,-57.8 C 742.4,87.9 742.4,86.3 740.2,80 734.8,63.8 723.1,53.5 703.8,47.9 695.6,45.6 671.3,44.4 662.7,46 Z"
       id="path6"
       inkscape:connector-curvature="0"
       style="fill:#5a5c5d;stroke:none;stroke-width:0.1;fill-opacity:1" />
    <path
       d="m 820.5,46.4 c -31.2,7.2 -52.6,29.4 -59,61.5 -2.1,10.2 -1.6,31.2 1,40.6 2.4,8.8 9.7,23.2 15.2,30 19.8,24.4 54.8,33.7 86.5,22.9 32.3,-10.9 52.3,-42.8 50.5,-80.4 -1.1,-23.5 -9.9,-43 -25.9,-57.5 -6.9,-6.2 -20.6,-13.5 -30.3,-16.1 -8.3,-2.2 -30.2,-2.8 -38,-1 z M 855.6,90 c 7.8,4 12.8,9.7 16,18.3 1.5,4.1 1.9,7.8 1.9,17.7 0,11.7 -0.2,12.9 -2.9,18.8 -6.4,13.8 -19.3,21 -36.1,20 -21.8,-1.4 -33.8,-15.6 -33.7,-39.9 0.1,-19.1 7.7,-31.4 23,-37.2 3.6,-1.3 7.1,-1.7 14.8,-1.4 9.4,0.2 10.7,0.5 17,3.7 z"
       id="path8"
       inkscape:connector-curvature="0"
       style="fill:#5a5c5d;stroke:none;stroke-width:0.1;fill-opacity:1" />
    <path
       d="m 419.2,47 c -11.6,1.7 -24,11.5 -29.9,23.5 L 386.5,76.2 386,62.3 385.5,48.5 366.3,48.2 347,48 v 77 77 h 22 21.9 l 0.3,-43.7 c 0.3,-42.9 0.3,-43.9 2.5,-48.6 3.6,-7.9 7.8,-12.4 14.7,-15.7 5.3,-2.6 7.9,-3.2 16,-3.7 L 434,89.7 V 67.9 46 l -4.7,0.1 c -2.7,0.1 -7.2,0.5 -10.1,0.9 z"
       id="path10"
       inkscape:connector-curvature="0"
       style="fill:#5a5c5d;stroke:none;stroke-width:0.1;fill-opacity:1" />
    <path
       d="m 501,50 c -13.3,3.5 -23.3,9.2 -33.1,18.9 -9.8,9.8 -14.6,17.6 -19.2,31.4 -3,8.8 -3.1,10 -3.2,25.7 0,19 1,23.7 8.2,38.9 3.9,8.1 5.8,10.8 13.7,18.6 7.7,7.8 10.5,9.9 18.6,13.9 11.9,5.8 21.1,7.8 36,7.7 14.3,0 27.3,-3.1 39.2,-9.2 11.6,-6 25.7,-20 31.5,-31.4 4.3,-8.4 10,-25.1 8.9,-26.2 -0.3,-0.4 -9.4,-1.6 -20.1,-2.8 l -19.5,-2.1 -1.1,4.1 c -7.4,27.7 -44.1,37.3 -64.6,16.9 -16.6,-16.7 -14.5,-47.7 4.3,-61 5.9,-4.2 10,-5.4 19,-5.4 5.5,0 8.1,0.5 12.2,2.6 2.9,1.4 5.2,2.9 5.2,3.2 0,0.4 -5.1,4.5 -11.2,9.2 -28.2,21.4 -29.8,23 -29.8,31.1 0,5.1 2.6,9.8 7.3,13.3 2.1,1.6 4.3,2.1 8.6,2.1 h 5.7 L 555,121.6 c 20.6,-15.3 37.9,-28.2 38.3,-28.6 1.2,-1.1 -3.5,-9.8 -9,-16.7 C 568.7,56.9 548.5,47.9 520.7,48.1 512,48.1 506.3,48.7 501,50 Z"
       id="path12"
       inkscape:connector-curvature="0"
       style="fill:#5a5c5d;stroke:none;stroke-width:0.1;fill-opacity:1" />
    <path
       d="m 935,103.2 c 0,42.9 0.3,55.7 1.4,61 5.9,27.6 31.9,44.1 63.9,40.6 14,-1.5 26.6,-8.4 34.8,-19.1 l 4,-5.2 7.7,7.5 c 12.9,12.5 24,17.1 41.8,17.1 26.4,0.1 46.2,-12.5 54.6,-34.7 2.2,-5.8 2.3,-6.7 2.6,-63.7 l 0.3,-57.7 h -21.1 -21 v 47.7 c 0,29 -0.5,49.6 -1.1,52.3 -2.2,9.9 -8.4,15 -19.2,15.8 -9.7,0.7 -16.6,-3.1 -20.3,-11.3 -0.5,-1.1 -1.1,-25 -1.4,-53 l -0.5,-51 h -21 -21 L 1019,101 c -0.4,46.3 -0.7,51.8 -2.2,54.7 -3.6,6.6 -10.6,9.8 -19.7,9.1 -11.3,-0.9 -17.3,-6.3 -19.1,-17.4 -0.6,-3.2 -1,-26.7 -1,-52.2 V 49 h -21 -21 z"
       id="path14"
       inkscape:connector-curvature="0"
       style="fill:#5a5c5d;stroke:none;stroke-width:0.1;fill-opacity:1" />
  </g>
</svg>
